<svg width="71" height="25" viewBox="0 0 71 25" fill="none" xmlns="http://www.w3.org/2000/svg">
<path d="M17.5388 18.544C17.7734 18.544 17.9814 18.6347 18.1628 18.816L19.8588 20.656C18.9201 21.8187 17.7628 22.7093 16.3868 23.328C15.0214 23.9467 13.3788 24.256 11.4588 24.256C9.74144 24.256 8.19478 23.9627 6.81878 23.376C5.45344 22.7893 4.28544 21.9733 3.31478 20.928C2.34411 19.8827 1.59744 18.6347 1.07478 17.184C0.562776 15.7333 0.306776 14.1493 0.306776 12.432C0.306776 10.6933 0.584109 9.104 1.13878 7.664C1.69344 6.21333 2.47211 4.96533 3.47478 3.92C4.48811 2.87467 5.69344 2.064 7.09078 1.488C8.48811 0.901333 10.0348 0.608 11.7308 0.608C13.4161 0.608 14.9094 0.885333 16.2108 1.44C17.5228 1.99467 18.6374 2.72 19.5548 3.616L18.1148 5.616C18.0294 5.744 17.9174 5.856 17.7788 5.952C17.6508 6.048 17.4694 6.096 17.2348 6.096C17.0748 6.096 16.9094 6.05333 16.7388 5.968C16.5681 5.872 16.3814 5.76 16.1788 5.632C15.9761 5.49333 15.7414 5.344 15.4748 5.184C15.2081 5.024 14.8988 4.88 14.5468 4.752C14.1948 4.61333 13.7841 4.50133 13.3148 4.416C12.8561 4.32 12.3228 4.272 11.7148 4.272C10.6801 4.272 9.73078 4.45867 8.86678 4.832C8.01344 5.19467 7.27744 5.728 6.65878 6.432C6.04011 7.12533 5.56011 7.97867 5.21878 8.992C4.87744 9.99467 4.70678 11.1413 4.70678 12.432C4.70678 13.7333 4.88811 14.8907 5.25078 15.904C5.62411 16.9173 6.12544 17.7707 6.75478 18.464C7.38411 19.1573 8.12544 19.6907 8.97878 20.064C9.83211 20.4267 10.7494 20.608 11.7308 20.608C12.3174 20.608 12.8454 20.576 13.3148 20.512C13.7948 20.448 14.2321 20.3467 14.6268 20.208C15.0321 20.0693 15.4108 19.8933 15.7628 19.68C16.1254 19.456 16.4828 19.184 16.8348 18.864C16.9414 18.768 17.0534 18.6933 17.1708 18.64C17.2881 18.576 17.4108 18.544 17.5388 18.544ZM25.5833 7.328C26.7993 7.328 27.9033 7.52533 28.8953 7.92C29.8979 8.31467 30.7513 8.87467 31.4553 9.6C32.1699 10.3253 32.7193 11.2107 33.1033 12.256C33.4873 13.3013 33.6793 14.4693 33.6793 15.76C33.6793 17.0613 33.4873 18.2347 33.1033 19.28C32.7193 20.3253 32.1699 21.216 31.4553 21.952C30.7513 22.688 29.8979 23.2533 28.8953 23.648C27.9033 24.0427 26.7993 24.24 25.5833 24.24C24.3566 24.24 23.2419 24.0427 22.2393 23.648C21.2366 23.2533 20.3779 22.688 19.6633 21.952C18.9593 21.216 18.4099 20.3253 18.0153 19.28C17.6313 18.2347 17.4393 17.0613 17.4393 15.76C17.4393 14.4693 17.6313 13.3013 18.0153 12.256C18.4099 11.2107 18.9593 10.3253 19.6633 9.6C20.3779 8.87467 21.2366 8.31467 22.2393 7.92C23.2419 7.52533 24.3566 7.328 25.5833 7.328ZM25.5833 21.2C26.9486 21.2 27.9566 20.7413 28.6073 19.824C29.2686 18.9067 29.5993 17.5627 29.5993 15.792C29.5993 14.0213 29.2686 12.672 28.6073 11.744C27.9566 10.816 26.9486 10.352 25.5833 10.352C24.1966 10.352 23.1673 10.8213 22.4953 11.76C21.8339 12.688 21.5033 14.032 21.5033 15.792C21.5033 17.552 21.8339 18.896 22.4953 19.824C23.1673 20.7413 24.1966 21.2 25.5833 21.2ZM33.4723 24V15.09L32.0723 15C31.8856 14.98 31.7923 14.8967 31.7923 14.75V14.36H33.4723V13.23C33.4723 12.6633 33.5456 12.1667 33.6923 11.74C33.8389 11.3067 34.0456 10.9467 34.3123 10.66C34.5789 10.3733 34.8989 10.16 35.2723 10.02C35.6523 9.87333 36.0689 9.8 36.5223 9.8C36.7289 9.8 36.9356 9.81667 37.1423 9.85C37.3489 9.88333 37.5356 9.93667 37.7023 10.01L37.6723 10.47C37.6589 10.53 37.6323 10.5667 37.5923 10.58C37.5523 10.5933 37.4889 10.6 37.4023 10.6C37.3223 10.5933 37.2189 10.5833 37.0923 10.57C36.9723 10.55 36.8256 10.54 36.6523 10.54C36.3256 10.54 36.0223 10.59 35.7423 10.69C35.4689 10.7833 35.2323 10.9367 35.0323 11.15C34.8323 11.3633 34.6756 11.6433 34.5623 11.99C34.4556 12.3367 34.4023 12.76 34.4023 13.26V14.36H39.5623V13.51C39.5623 12.8967 39.6523 12.3467 39.8323 11.86C40.0123 11.3667 40.2723 10.95 40.6123 10.61C40.9589 10.2633 41.3789 10 41.8723 9.82C42.3656 9.63333 42.9289 9.54 43.5623 9.54C43.7823 9.54 44.0089 9.56 44.2423 9.6C44.4823 9.63333 44.6823 9.68333 44.8423 9.75L44.8023 10.23C44.7956 10.2833 44.7723 10.3133 44.7323 10.32C44.6923 10.3267 44.6323 10.3267 44.5523 10.32C44.4723 10.3133 44.3689 10.3033 44.2423 10.29C44.1156 10.27 43.9656 10.26 43.7923 10.26C42.7389 10.26 41.9256 10.53 41.3523 11.07C40.7789 11.61 40.4923 12.4333 40.4923 13.54V14.36H46.3223V24H45.3623V15.07H40.5123V24H39.5623V15.07H34.4323V24H33.4723ZM54.2077 15.38C54.1744 15.4133 54.1411 15.4433 54.1077 15.47C54.0811 15.49 54.0411 15.5 53.9877 15.5C53.9211 15.5 53.8311 15.4567 53.7177 15.37C53.6044 15.2767 53.4511 15.1767 53.2577 15.07C53.0644 14.9633 52.8211 14.8667 52.5277 14.78C52.2411 14.6867 51.8911 14.64 51.4777 14.64C50.9044 14.64 50.3944 14.7433 49.9477 14.95C49.5077 15.15 49.1344 15.44 48.8277 15.82C48.5211 16.2 48.2877 16.66 48.1277 17.2C47.9744 17.74 47.8977 18.3467 47.8977 19.02C47.8977 19.72 47.9777 20.34 48.1377 20.88C48.3044 21.42 48.5377 21.8767 48.8377 22.25C49.1377 22.6167 49.5011 22.8967 49.9277 23.09C50.3544 23.2833 50.8277 23.38 51.3477 23.38C51.8277 23.38 52.2277 23.3233 52.5477 23.21C52.8744 23.0967 53.1411 22.9733 53.3477 22.84C53.5611 22.7067 53.7277 22.5833 53.8477 22.47C53.9677 22.3567 54.0677 22.3 54.1477 22.3C54.2277 22.3 54.2944 22.3333 54.3477 22.4L54.5977 22.72C54.4444 22.92 54.2511 23.1067 54.0177 23.28C53.7844 23.4533 53.5211 23.6033 53.2277 23.73C52.9344 23.8567 52.6144 23.9533 52.2677 24.02C51.9277 24.0933 51.5711 24.13 51.1977 24.13C50.5644 24.13 49.9844 24.0167 49.4577 23.79C48.9377 23.5567 48.4877 23.2233 48.1077 22.79C47.7344 22.35 47.4411 21.8133 47.2277 21.18C47.0211 20.5467 46.9177 19.8267 46.9177 19.02C46.9177 18.26 47.0177 17.5667 47.2177 16.94C47.4177 16.3133 47.7111 15.7733 48.0977 15.32C48.4844 14.8667 48.9544 14.5167 49.5077 14.27C50.0677 14.0167 50.7077 13.89 51.4277 13.89C52.0744 13.89 52.6477 13.9933 53.1477 14.2C53.6477 14.4067 54.0844 14.6867 54.4577 15.04L54.2077 15.38ZM61.536 18.02C61.536 17.4867 61.4594 17.01 61.306 16.59C61.1594 16.1633 60.9494 15.8033 60.676 15.51C60.4027 15.2167 60.076 14.9933 59.696 14.84C59.3227 14.68 58.9094 14.6 58.456 14.6C57.9427 14.6 57.4827 14.68 57.076 14.84C56.6694 15 56.316 15.23 56.016 15.53C55.7227 15.83 55.486 16.19 55.306 16.61C55.126 17.03 55.006 17.5 54.946 18.02H61.536ZM54.896 18.63V18.82C54.896 19.5667 54.9827 20.2233 55.156 20.79C55.3294 21.3567 55.576 21.8333 55.896 22.22C56.216 22.6 56.6027 22.8867 57.056 23.08C57.5094 23.2733 58.016 23.37 58.576 23.37C59.076 23.37 59.5094 23.3167 59.876 23.21C60.2427 23.0967 60.5494 22.9733 60.796 22.84C61.0494 22.7 61.2494 22.5767 61.396 22.47C61.5427 22.3567 61.6494 22.3 61.716 22.3C61.8027 22.3 61.8694 22.3333 61.916 22.4L62.176 22.72C62.016 22.92 61.8027 23.1067 61.536 23.28C61.276 23.4533 60.9827 23.6033 60.656 23.73C60.336 23.85 59.9894 23.9467 59.616 24.02C59.2494 24.0933 58.8794 24.13 58.506 24.13C57.826 24.13 57.206 24.0133 56.646 23.78C56.086 23.54 55.606 23.1933 55.206 22.74C54.806 22.2867 54.496 21.7333 54.276 21.08C54.0627 20.42 53.956 19.6667 53.956 18.82C53.956 18.1067 54.056 17.45 54.256 16.85C54.4627 16.2433 54.756 15.7233 55.136 15.29C55.5227 14.85 55.9927 14.5067 56.546 14.26C57.106 14.0133 57.7394 13.89 58.446 13.89C59.006 13.89 59.526 13.9867 60.006 14.18C60.486 14.3733 60.9027 14.6567 61.256 15.03C61.6094 15.3967 61.886 15.85 62.086 16.39C62.2927 16.93 62.396 17.55 62.396 18.25C62.396 18.3967 62.376 18.4967 62.336 18.55C62.296 18.6033 62.2294 18.63 62.136 18.63H54.896ZM68.2557 15.28C68.2024 15.3733 68.1257 15.42 68.0257 15.42C67.9524 15.42 67.859 15.38 67.7457 15.3C67.6324 15.2133 67.479 15.12 67.2857 15.02C67.099 14.9133 66.8657 14.82 66.5857 14.74C66.3057 14.6533 65.9657 14.61 65.5657 14.61C65.2057 14.61 64.8757 14.6633 64.5757 14.77C64.2824 14.87 64.029 15.0067 63.8157 15.18C63.609 15.3533 63.449 15.5567 63.3357 15.79C63.2224 16.0167 63.1657 16.2567 63.1657 16.51C63.1657 16.8233 63.2457 17.0833 63.4057 17.29C63.5657 17.4967 63.7724 17.6733 64.0257 17.82C64.2857 17.9667 64.5824 18.0933 64.9157 18.2C65.249 18.3067 65.5857 18.4133 65.9257 18.52C66.2724 18.6267 66.6124 18.7467 66.9457 18.88C67.279 19.0067 67.5724 19.1667 67.8257 19.36C68.0857 19.5533 68.2957 19.79 68.4557 20.07C68.6157 20.35 68.6957 20.69 68.6957 21.09C68.6957 21.5233 68.619 21.9267 68.4657 22.3C68.3124 22.6733 68.0857 22.9967 67.7857 23.27C67.4924 23.5433 67.129 23.76 66.6957 23.92C66.2624 24.08 65.7657 24.16 65.2057 24.16C64.5057 24.16 63.9024 24.05 63.3957 23.83C62.889 23.6033 62.4357 23.31 62.0357 22.95L62.2557 22.61C62.289 22.5567 62.3257 22.5167 62.3657 22.49C62.4124 22.4633 62.4724 22.45 62.5457 22.45C62.6324 22.45 62.7357 22.5033 62.8557 22.61C62.9824 22.7167 63.149 22.8333 63.3557 22.96C63.5624 23.08 63.8157 23.1933 64.1157 23.3C64.4224 23.4067 64.799 23.46 65.2457 23.46C65.6657 23.46 66.0357 23.4033 66.3557 23.29C66.6757 23.17 66.9424 23.01 67.1557 22.81C67.369 22.61 67.529 22.3767 67.6357 22.11C67.749 21.8367 67.8057 21.55 67.8057 21.25C67.8057 20.9167 67.7257 20.64 67.5657 20.42C67.4057 20.2 67.1957 20.0133 66.9357 19.86C66.6757 19.7067 66.379 19.5767 66.0457 19.47C65.719 19.3633 65.3824 19.2567 65.0357 19.15C64.689 19.0433 64.349 18.9267 64.0157 18.8C63.689 18.6733 63.3957 18.5133 63.1357 18.32C62.8757 18.1267 62.6657 17.8933 62.5057 17.62C62.3457 17.34 62.2657 16.9933 62.2657 16.58C62.2657 16.2267 62.3424 15.8867 62.4957 15.56C62.649 15.2333 62.8657 14.9467 63.1457 14.7C63.4324 14.4533 63.779 14.2567 64.1857 14.11C64.5924 13.9633 65.049 13.89 65.5557 13.89C66.1624 13.89 66.699 13.9767 67.1657 14.15C67.639 14.3233 68.069 14.59 68.4557 14.95L68.2557 15.28ZM68.8518 23.23C68.8518 23.1033 68.8751 22.9833 68.9218 22.87C68.9685 22.7567 69.0318 22.66 69.1118 22.58C69.1985 22.4933 69.2951 22.4267 69.4018 22.38C69.5151 22.3267 69.6385 22.3 69.7718 22.3C69.8985 22.3 70.0185 22.3267 70.1318 22.38C70.2451 22.4267 70.3418 22.4933 70.4218 22.58C70.5085 22.66 70.5751 22.7567 70.6218 22.87C70.6751 22.9833 70.7018 23.1033 70.7018 23.23C70.7018 23.3633 70.6751 23.4867 70.6218 23.6C70.5751 23.7067 70.5085 23.8033 70.4218 23.89C70.3418 23.97 70.2451 24.0333 70.1318 24.08C70.0185 24.1267 69.8985 24.15 69.7718 24.15C69.5118 24.15 69.2918 24.0633 69.1118 23.89C68.9385 23.71 68.8518 23.49 68.8518 23.23Z" fill="#/_FF8F2A"/>
</svg>
