<svg width="17" height="17" viewBox="0 0 17 17" fill="none" xmlns="http://www.w3.org/2000/svg">
<g clip-path="url(#clip0_7499_7189)">
<path d="M16.413 9.76937H15.1504H4.6293H0.360725C0.161605 9.76937 0 9.93097 0 10.1301V12.8144C0 13.0135 0.161605 13.1751 0.360725 13.1751H4.6293H15.1504H16.413C16.6121 13.1751 16.7737 13.0135 16.7737 12.8144V10.1301C16.7737 9.93097 16.6121 9.76937 16.413 9.76937ZM4.99003 10.4908H14.7897V12.4536H4.99003V10.4908ZM16.0523 12.4536H15.5112V10.4908H16.0523V12.4536ZM15.3039 5.96685C15.0343 5.26031 15.2413 4.41669 15.8079 3.91552C15.9573 3.78302 16.1855 3.79769 16.317 3.94655C16.4491 4.09565 16.4351 4.32362 16.286 4.45565C15.9452 4.75722 15.8156 5.2846 15.9779 5.70977C16.0619 5.92957 16.2167 6.13302 16.3812 6.34825C16.564 6.58802 16.753 6.83595 16.8752 7.14161C17.1943 7.94266 16.8826 8.94499 16.1653 9.42307C16.1037 9.46419 16.0342 9.48367 15.9654 9.48367C15.849 9.48367 15.7346 9.4274 15.6651 9.32303C15.5545 9.15734 15.5994 8.93345 15.7651 8.82283C16.2021 8.53136 16.3998 7.89697 16.205 7.40878C16.1198 7.19475 15.9681 6.99611 15.8077 6.78569C15.6191 6.5392 15.4248 6.28404 15.3039 5.96685Z" fill="#393939"/>
</g>
<defs>
<clipPath id="clip0_7499_7189">
<rect width="17" height="17" fill="white"/>
</clipPath>
</defs>
</svg>
