<svg width="17" height="17" viewBox="0 0 17 17" fill="none" xmlns="http://www.w3.org/2000/svg">
<g clip-path="url(#clip0_7497_5171)">
<path fill-rule="evenodd" clip-rule="evenodd" d="M13.4649 6.84773C13.4649 9.51673 11.4027 11.685 8.789 11.9H7.93815C5.32525 11.685 3.26485 9.52916 3.26485 6.86101C3.26485 6.82616 3.26995 6.8 3.26995 6.8H13.4597C13.4597 6.8 13.4649 6.81373 13.4649 6.84773ZM17 5.1H11.9V0H10.2V5.1H6.8V0H5.1V5.1H0V6.8H1.56995C1.56995 6.8 1.63285 6.81373 1.63285 6.84773C1.63285 10.3149 4.25 13.147 7.65 13.5626V17H9.35V13.5626C12.75 13.1487 15.2328 10.3282 15.2328 6.86101C15.2328 6.82616 15.1606 6.8 15.1606 6.8H17V5.1Z" fill="#393939"/>
</g>
<defs>
<clipPath id="clip0_7497_5171">
<rect width="17" height="17" fill="white"/>
</clipPath>
</defs>
</svg>
